%TF.GenerationSoftware,KiCad,Pcbnew,(5.1.7)-1*%
%TF.CreationDate,2020-11-24T01:41:10-06:00*%
%TF.ProjectId,3DP_HotEnd_Breakout,3344505f-486f-4744-956e-645f42726561,rev?*%
%TF.SameCoordinates,Original*%
%TF.FileFunction,Profile,NP*%
%FSLAX46Y46*%
G04 Gerber Fmt 4.6, Leading zero omitted, Abs format (unit mm)*
G04 Created by KiCad (PCBNEW (5.1.7)-1) date 2020-11-24 01:41:10*
%MOMM*%
%LPD*%
G01*
G04 APERTURE LIST*
%TA.AperFunction,Profile*%
%ADD10C,0.050000*%
%TD*%
G04 APERTURE END LIST*
D10*
X22600000Y8750000D02*
G75*
G03*
X22600000Y8750000I-1600000J0D01*
G01*
X22600000Y-8750000D02*
G75*
G03*
X22600000Y-8750000I-1600000J0D01*
G01*
X-19400000Y-8750000D02*
G75*
G03*
X-19400000Y-8750000I-1600000J0D01*
G01*
X-19400000Y8750000D02*
G75*
G03*
X-19400000Y8750000I-1600000J0D01*
G01*
X24500000Y-8750000D02*
G75*
G02*
X21000000Y-12250000I-3500000J0D01*
G01*
X21000000Y12250000D02*
G75*
G02*
X24500000Y8750000I0J-3500000D01*
G01*
X-21000000Y-12250000D02*
G75*
G02*
X-24500000Y-8750000I0J3500000D01*
G01*
X-24500000Y8750000D02*
G75*
G02*
X-21000000Y12250000I3500000J0D01*
G01*
X19835000Y-2945000D02*
G75*
G02*
X19835000Y-5485000I0J-1270000D01*
G01*
X17930000Y-5485000D02*
X19835000Y-5485000D01*
X17930000Y-2945000D02*
X19835000Y-2945000D01*
X17930000Y-5485000D02*
G75*
G02*
X17930000Y-2945000I0J1270000D01*
G01*
X17930000Y2945000D02*
X19835000Y2945000D01*
X17930000Y5485000D02*
X19835000Y5485000D01*
X19835000Y5485000D02*
G75*
G02*
X19835000Y2945000I0J-1270000D01*
G01*
X17930000Y2945000D02*
G75*
G02*
X17930000Y5485000I0J1270000D01*
G01*
X-21000000Y12250000D02*
X21000000Y12250000D01*
X-24500000Y-8750000D02*
X-24500000Y8750000D01*
X21000000Y-12250000D02*
X-21000000Y-12250000D01*
X24500000Y8750000D02*
X24500000Y-8750000D01*
M02*
