%TF.GenerationSoftware,KiCad,Pcbnew,(5.1.7)-1*%
%TF.CreationDate,2020-11-08T19:33:24-06:00*%
%TF.ProjectId,3DP_HotEnd_Breakout,3344505f-486f-4744-956e-645f42726561,rev?*%
%TF.SameCoordinates,Original*%
%TF.FileFunction,Copper,L2,Bot*%
%TF.FilePolarity,Positive*%
%FSLAX46Y46*%
G04 Gerber Fmt 4.6, Leading zero omitted, Abs format (unit mm)*
G04 Created by KiCad (PCBNEW (5.1.7)-1) date 2020-11-08 19:33:24*
%MOMM*%
%LPD*%
G01*
G04 APERTURE LIST*
%TA.AperFunction,ComponentPad*%
%ADD10O,1.700000X2.000000*%
%TD*%
%TA.AperFunction,ComponentPad*%
%ADD11R,1.700000X1.700000*%
%TD*%
%TA.AperFunction,ComponentPad*%
%ADD12C,1.700000*%
%TD*%
%TA.AperFunction,ComponentPad*%
%ADD13O,1.700000X1.700000*%
%TD*%
%TA.AperFunction,Conductor*%
%ADD14C,0.800000*%
%TD*%
%TA.AperFunction,Conductor*%
%ADD15C,0.250000*%
%TD*%
%TA.AperFunction,Conductor*%
%ADD16C,2.000000*%
%TD*%
%TA.AperFunction,Conductor*%
%ADD17C,3.250000*%
%TD*%
G04 APERTURE END LIST*
D10*
%TO.P,J13,2*%
%TO.N,-THERM*%
X95000000Y-67700000D03*
%TO.P,J13,1*%
%TO.N,+THERM*%
%TA.AperFunction,ComponentPad*%
G36*
G01*
X91650000Y-68450000D02*
X91650000Y-66950000D01*
G75*
G02*
X91900000Y-66700000I250000J0D01*
G01*
X93100000Y-66700000D01*
G75*
G02*
X93350000Y-66950000I0J-250000D01*
G01*
X93350000Y-68450000D01*
G75*
G02*
X93100000Y-68700000I-250000J0D01*
G01*
X91900000Y-68700000D01*
G75*
G02*
X91650000Y-68450000I0J250000D01*
G01*
G37*
%TD.AperFunction*%
%TD*%
%TO.P,J11,2*%
%TO.N,+V_LED*%
X111720000Y-62230000D03*
%TO.P,J11,1*%
%TO.N,-V_LED*%
%TA.AperFunction,ComponentPad*%
G36*
G01*
X108370000Y-62980000D02*
X108370000Y-61480000D01*
G75*
G02*
X108620000Y-61230000I250000J0D01*
G01*
X109820000Y-61230000D01*
G75*
G02*
X110070000Y-61480000I0J-250000D01*
G01*
X110070000Y-62980000D01*
G75*
G02*
X109820000Y-63230000I-250000J0D01*
G01*
X108620000Y-63230000D01*
G75*
G02*
X108370000Y-62980000I0J250000D01*
G01*
G37*
%TD.AperFunction*%
%TD*%
%TO.P,J4,2*%
%TO.N,+FAN1*%
X118150000Y-78740000D03*
%TO.P,J4,1*%
%TO.N,-FAN1*%
%TA.AperFunction,ComponentPad*%
G36*
G01*
X121500000Y-77990000D02*
X121500000Y-79490000D01*
G75*
G02*
X121250000Y-79740000I-250000J0D01*
G01*
X120050000Y-79740000D01*
G75*
G02*
X119800000Y-79490000I0J250000D01*
G01*
X119800000Y-77990000D01*
G75*
G02*
X120050000Y-77740000I250000J0D01*
G01*
X121250000Y-77740000D01*
G75*
G02*
X121500000Y-77990000I0J-250000D01*
G01*
G37*
%TD.AperFunction*%
%TD*%
%TO.P,J3,2*%
%TO.N,+FAN1*%
X109260000Y-78740000D03*
%TO.P,J3,1*%
%TO.N,-FAN1*%
%TA.AperFunction,ComponentPad*%
G36*
G01*
X112610000Y-77990000D02*
X112610000Y-79490000D01*
G75*
G02*
X112360000Y-79740000I-250000J0D01*
G01*
X111160000Y-79740000D01*
G75*
G02*
X110910000Y-79490000I0J250000D01*
G01*
X110910000Y-77990000D01*
G75*
G02*
X111160000Y-77740000I250000J0D01*
G01*
X112360000Y-77740000D01*
G75*
G02*
X112610000Y-77990000I0J-250000D01*
G01*
G37*
%TD.AperFunction*%
%TD*%
%TO.P,J2,2*%
%TO.N,+FAN0*%
X120610000Y-62230000D03*
%TO.P,J2,1*%
%TO.N,-FAN0*%
%TA.AperFunction,ComponentPad*%
G36*
G01*
X117260000Y-62980000D02*
X117260000Y-61480000D01*
G75*
G02*
X117510000Y-61230000I250000J0D01*
G01*
X118710000Y-61230000D01*
G75*
G02*
X118960000Y-61480000I0J-250000D01*
G01*
X118960000Y-62980000D01*
G75*
G02*
X118710000Y-63230000I-250000J0D01*
G01*
X117510000Y-63230000D01*
G75*
G02*
X117260000Y-62980000I0J250000D01*
G01*
G37*
%TD.AperFunction*%
%TD*%
D11*
%TO.P,J7,1*%
%TO.N,+V_IN*%
X100300000Y-70250000D03*
D12*
%TO.P,J7,2*%
%TO.N,-V_IN*%
X103800000Y-70250000D03*
%TD*%
D13*
%TO.P,J11,2*%
%TO.N,+V_LED*%
X111760000Y-68580000D03*
D11*
%TO.P,J11,1*%
%TO.N,-V_LED*%
X109220000Y-68580000D03*
%TD*%
D13*
%TO.P,J12,2*%
%TO.N,-THERM*%
X94840000Y-73750000D03*
D11*
%TO.P,J12,1*%
%TO.N,+THERM*%
X92300000Y-73750000D03*
%TD*%
D13*
%TO.P,J9,3*%
%TO.N,-V_Probe*%
X99010000Y-79750000D03*
%TO.P,J9,2*%
%TO.N,+3V3*%
X101550000Y-79750000D03*
D11*
%TO.P,J9,1*%
%TO.N,Z_PROBE_CONN*%
X104090000Y-79750000D03*
%TD*%
D13*
%TO.P,J5,2*%
%TO.N,+FAN1*%
X118110000Y-72390000D03*
D11*
%TO.P,J5,1*%
%TO.N,-FAN1*%
X120650000Y-72390000D03*
%TD*%
D13*
%TO.P,J1,2*%
%TO.N,+FAN0*%
X120650000Y-68580000D03*
D11*
%TO.P,J1,1*%
%TO.N,-FAN0*%
X118110000Y-68580000D03*
%TD*%
%TO.P,J6,1*%
%TO.N,-V_IN*%
X103830000Y-62180001D03*
D12*
%TO.P,J6,2*%
%TO.N,+V_IN*%
X100330000Y-62180001D03*
%TD*%
D13*
%TO.P,J8,3*%
%TO.N,-V_Probe*%
X107820000Y-72700000D03*
%TO.P,J8,2*%
%TO.N,+3V3*%
X110360000Y-72700000D03*
D11*
%TO.P,J8,1*%
%TO.N,Z_PROBE_CONN*%
X112900000Y-72700000D03*
%TD*%
D14*
%TO.N,+3V3*%
X101550000Y-78547919D02*
X101550000Y-79750000D01*
X105947918Y-74150001D02*
X101550000Y-78547919D01*
X108909999Y-74150001D02*
X105947918Y-74150001D01*
X110360000Y-72700000D02*
X108909999Y-74150001D01*
%TO.N,Z_PROBE_CONN*%
X110324225Y-74150001D02*
X104724226Y-79750000D01*
X111449999Y-74150001D02*
X110324225Y-74150001D01*
X104724226Y-79750000D02*
X104090000Y-79750000D01*
X112900000Y-72700000D02*
X111449999Y-74150001D01*
%TO.N,-FAN0*%
X118110000Y-62230000D02*
X118110000Y-68580000D01*
%TO.N,-FAN1*%
X120650000Y-78740000D02*
X120650000Y-72390000D01*
X120650000Y-78740000D02*
X120650000Y-80010000D01*
X120650000Y-80010000D02*
X120015000Y-80645000D01*
X113665000Y-80645000D02*
X111760000Y-78740000D01*
X120015000Y-80645000D02*
X113665000Y-80645000D01*
D15*
%TO.N,+V_LED*%
X111720000Y-62230000D02*
X111720000Y-62230000D01*
X111760000Y-68580000D02*
X111760000Y-68580000D01*
X111720000Y-68540000D02*
X111760000Y-68580000D01*
D14*
X111720000Y-62230000D02*
X111720000Y-68540000D01*
D15*
%TO.N,-V_LED*%
X109220000Y-68580000D02*
X109220000Y-68580000D01*
X109220000Y-62230000D02*
X109220000Y-62230000D01*
X109220000Y-62230000D02*
X109220000Y-62230000D01*
X109220000Y-62230000D02*
X109220000Y-62230000D01*
D14*
X109220000Y-62230000D02*
X109220000Y-68580000D01*
D15*
%TO.N,+FAN0*%
X120650000Y-62270000D02*
X120610000Y-62230000D01*
D14*
X120650000Y-68580000D02*
X120650000Y-62270000D01*
%TO.N,+FAN1*%
X118110000Y-78700000D02*
X118150000Y-78740000D01*
X118150000Y-78740000D02*
X118150000Y-78145000D01*
X118110000Y-72390000D02*
X118110000Y-74930000D01*
X109260000Y-78740000D02*
X109260000Y-77090000D01*
X110810001Y-75539999D02*
X118039999Y-75539999D01*
X109260000Y-77090000D02*
X110810001Y-75539999D01*
X118039999Y-75539999D02*
X118110000Y-75610000D01*
X118110000Y-75610000D02*
X118110000Y-78700000D01*
X118110000Y-74930000D02*
X118110000Y-75610000D01*
D16*
%TO.N,-V_IN*%
X100330000Y-70120002D02*
X100300000Y-70150002D01*
D17*
X100330000Y-62279999D02*
X100330000Y-70120002D01*
%TO.N,+V_IN*%
X103830000Y-70120002D02*
X103800000Y-70150002D01*
X103830000Y-62279999D02*
X103830000Y-70120002D01*
D14*
%TO.N,-V_Probe*%
X99000000Y-79740000D02*
X99010000Y-79750000D01*
X107820000Y-72700000D02*
X104500000Y-72700000D01*
X99010000Y-78190000D02*
X99010000Y-79750000D01*
X104500000Y-72700000D02*
X99010000Y-78190000D01*
%TO.N,-THERM*%
X95000000Y-73590000D02*
X94840000Y-73750000D01*
X95000000Y-67700000D02*
X95000000Y-73590000D01*
%TO.N,+THERM*%
X92500000Y-73550000D02*
X92300000Y-73750000D01*
X92500000Y-67700000D02*
X92500000Y-73550000D01*
%TD*%
M02*
