%TF.GenerationSoftware,KiCad,Pcbnew,(5.1.7)-1*%
%TF.CreationDate,2020-11-08T19:50:20-06:00*%
%TF.ProjectId,3DP_HotEnd_Breakout,3344505f-486f-4744-956e-645f42726561,rev?*%
%TF.SameCoordinates,Original*%
%TF.FileFunction,Legend,Top*%
%TF.FilePolarity,Positive*%
%FSLAX46Y46*%
G04 Gerber Fmt 4.6, Leading zero omitted, Abs format (unit mm)*
G04 Created by KiCad (PCBNEW (5.1.7)-1) date 2020-11-08 19:50:20*
%MOMM*%
%LPD*%
G01*
G04 APERTURE LIST*
%ADD10C,0.120000*%
%ADD11C,0.250000*%
%ADD12C,0.150000*%
G04 APERTURE END LIST*
D10*
%TO.C,J13*%
X89650000Y-64950000D02*
X89650000Y-66200000D01*
X90900000Y-64950000D02*
X89650000Y-64950000D01*
X96800000Y-70450000D02*
X93750000Y-70450000D01*
X96800000Y-67500000D02*
X96800000Y-70450000D01*
X97550000Y-67500000D02*
X96800000Y-67500000D01*
X93750000Y-70450000D02*
X91760000Y-70450000D01*
X90700000Y-67500000D02*
X90700000Y-68840000D01*
X89950000Y-67500000D02*
X90700000Y-67500000D01*
X97550000Y-65250000D02*
X95750000Y-65250000D01*
X97550000Y-66000000D02*
X97550000Y-65250000D01*
X95750000Y-66000000D02*
X97550000Y-66000000D01*
X95750000Y-65250000D02*
X95750000Y-66000000D01*
X91750000Y-65250000D02*
X89950000Y-65250000D01*
X91750000Y-66000000D02*
X91750000Y-65250000D01*
X89950000Y-66000000D02*
X91750000Y-66000000D01*
X89950000Y-65250000D02*
X89950000Y-66000000D01*
X94250000Y-65250000D02*
X93250000Y-65250000D01*
X94250000Y-66000000D02*
X94250000Y-65250000D01*
X93250000Y-66000000D02*
X94250000Y-66000000D01*
X93250000Y-65250000D02*
X93250000Y-66000000D01*
X97560000Y-65240000D02*
X89940000Y-65240000D01*
X97560000Y-71210000D02*
X97560000Y-65240000D01*
X89940000Y-71210000D02*
X97560000Y-71210000D01*
X89940000Y-65240000D02*
X89940000Y-71210000D01*
%TO.C,J11*%
X106370000Y-59480000D02*
X106370000Y-60730000D01*
X107620000Y-59480000D02*
X106370000Y-59480000D01*
X113520000Y-64980000D02*
X110470000Y-64980000D01*
X113520000Y-62030000D02*
X113520000Y-64980000D01*
X114270000Y-62030000D02*
X113520000Y-62030000D01*
X110470000Y-64980000D02*
X108480000Y-64980000D01*
X107420000Y-62030000D02*
X107420000Y-63370000D01*
X106670000Y-62030000D02*
X107420000Y-62030000D01*
X114270000Y-59780000D02*
X112470000Y-59780000D01*
X114270000Y-60530000D02*
X114270000Y-59780000D01*
X112470000Y-60530000D02*
X114270000Y-60530000D01*
X112470000Y-59780000D02*
X112470000Y-60530000D01*
X108470000Y-59780000D02*
X106670000Y-59780000D01*
X108470000Y-60530000D02*
X108470000Y-59780000D01*
X106670000Y-60530000D02*
X108470000Y-60530000D01*
X106670000Y-59780000D02*
X106670000Y-60530000D01*
X110970000Y-59780000D02*
X109970000Y-59780000D01*
X110970000Y-60530000D02*
X110970000Y-59780000D01*
X109970000Y-60530000D02*
X110970000Y-60530000D01*
X109970000Y-59780000D02*
X109970000Y-60530000D01*
X114280000Y-59770000D02*
X106660000Y-59770000D01*
X114280000Y-65740000D02*
X114280000Y-59770000D01*
X106660000Y-65740000D02*
X114280000Y-65740000D01*
X106660000Y-59770000D02*
X106660000Y-65740000D01*
%TO.C,J4*%
X123500000Y-81490000D02*
X123500000Y-80240000D01*
X122250000Y-81490000D02*
X123500000Y-81490000D01*
X116350000Y-75990000D02*
X119400000Y-75990000D01*
X116350000Y-78940000D02*
X116350000Y-75990000D01*
X115600000Y-78940000D02*
X116350000Y-78940000D01*
X119400000Y-75990000D02*
X121390000Y-75990000D01*
X122450000Y-78940000D02*
X122450000Y-77600000D01*
X123200000Y-78940000D02*
X122450000Y-78940000D01*
X115600000Y-81190000D02*
X117400000Y-81190000D01*
X115600000Y-80440000D02*
X115600000Y-81190000D01*
X117400000Y-80440000D02*
X115600000Y-80440000D01*
X117400000Y-81190000D02*
X117400000Y-80440000D01*
X121400000Y-81190000D02*
X123200000Y-81190000D01*
X121400000Y-80440000D02*
X121400000Y-81190000D01*
X123200000Y-80440000D02*
X121400000Y-80440000D01*
X123200000Y-81190000D02*
X123200000Y-80440000D01*
X118900000Y-81190000D02*
X119900000Y-81190000D01*
X118900000Y-80440000D02*
X118900000Y-81190000D01*
X119900000Y-80440000D02*
X118900000Y-80440000D01*
X119900000Y-81190000D02*
X119900000Y-80440000D01*
X115590000Y-81200000D02*
X123210000Y-81200000D01*
X115590000Y-75230000D02*
X115590000Y-81200000D01*
X123210000Y-75230000D02*
X115590000Y-75230000D01*
X123210000Y-81200000D02*
X123210000Y-75230000D01*
%TO.C,J3*%
X114610000Y-81490000D02*
X114610000Y-80240000D01*
X113360000Y-81490000D02*
X114610000Y-81490000D01*
X107460000Y-75990000D02*
X110510000Y-75990000D01*
X107460000Y-78940000D02*
X107460000Y-75990000D01*
X106710000Y-78940000D02*
X107460000Y-78940000D01*
X110510000Y-75990000D02*
X112500000Y-75990000D01*
X113560000Y-78940000D02*
X113560000Y-77600000D01*
X114310000Y-78940000D02*
X113560000Y-78940000D01*
X106710000Y-81190000D02*
X108510000Y-81190000D01*
X106710000Y-80440000D02*
X106710000Y-81190000D01*
X108510000Y-80440000D02*
X106710000Y-80440000D01*
X108510000Y-81190000D02*
X108510000Y-80440000D01*
X112510000Y-81190000D02*
X114310000Y-81190000D01*
X112510000Y-80440000D02*
X112510000Y-81190000D01*
X114310000Y-80440000D02*
X112510000Y-80440000D01*
X114310000Y-81190000D02*
X114310000Y-80440000D01*
X110010000Y-81190000D02*
X111010000Y-81190000D01*
X110010000Y-80440000D02*
X110010000Y-81190000D01*
X111010000Y-80440000D02*
X110010000Y-80440000D01*
X111010000Y-81190000D02*
X111010000Y-80440000D01*
X106700000Y-81200000D02*
X114320000Y-81200000D01*
X106700000Y-75230000D02*
X106700000Y-81200000D01*
X114320000Y-75230000D02*
X106700000Y-75230000D01*
X114320000Y-81200000D02*
X114320000Y-75230000D01*
%TO.C,J2*%
X115260000Y-59480000D02*
X115260000Y-60730000D01*
X116510000Y-59480000D02*
X115260000Y-59480000D01*
X122410000Y-64980000D02*
X119360000Y-64980000D01*
X122410000Y-62030000D02*
X122410000Y-64980000D01*
X123160000Y-62030000D02*
X122410000Y-62030000D01*
X119360000Y-64980000D02*
X117370000Y-64980000D01*
X116310000Y-62030000D02*
X116310000Y-63370000D01*
X115560000Y-62030000D02*
X116310000Y-62030000D01*
X123160000Y-59780000D02*
X121360000Y-59780000D01*
X123160000Y-60530000D02*
X123160000Y-59780000D01*
X121360000Y-60530000D02*
X123160000Y-60530000D01*
X121360000Y-59780000D02*
X121360000Y-60530000D01*
X117360000Y-59780000D02*
X115560000Y-59780000D01*
X117360000Y-60530000D02*
X117360000Y-59780000D01*
X115560000Y-60530000D02*
X117360000Y-60530000D01*
X115560000Y-59780000D02*
X115560000Y-60530000D01*
X119860000Y-59780000D02*
X118860000Y-59780000D01*
X119860000Y-60530000D02*
X119860000Y-59780000D01*
X118860000Y-60530000D02*
X119860000Y-60530000D01*
X118860000Y-59780000D02*
X118860000Y-60530000D01*
X123170000Y-59770000D02*
X115550000Y-59770000D01*
X123170000Y-65740000D02*
X123170000Y-59770000D01*
X115550000Y-65740000D02*
X123170000Y-65740000D01*
X115550000Y-59770000D02*
X115550000Y-65740000D01*
%TO.C,R4*%
X127654724Y-64922500D02*
X127145276Y-64922500D01*
X127654724Y-63877500D02*
X127145276Y-63877500D01*
D11*
%TO.C,J7*%
X97900000Y-70250001D02*
G75*
G03*
X97900000Y-70250001I-125000J0D01*
G01*
D12*
X98225000Y-73925001D02*
X98225000Y-66475001D01*
X98225000Y-73925001D02*
X105875000Y-73925001D01*
X105875000Y-73925001D02*
X105875000Y-66475001D01*
X98225000Y-66475001D02*
X105875000Y-66475001D01*
D10*
%TO.C,D4*%
X128525000Y-60940000D02*
X125665000Y-60940000D01*
X125665000Y-60940000D02*
X125665000Y-62860000D01*
X125665000Y-62860000D02*
X128525000Y-62860000D01*
%TO.C,R3*%
X115972500Y-72345276D02*
X115972500Y-72854724D01*
X114927500Y-72345276D02*
X114927500Y-72854724D01*
%TO.C,D3*%
X115910000Y-69700000D02*
X115910000Y-66840000D01*
X115910000Y-66840000D02*
X113990000Y-66840000D01*
X113990000Y-66840000D02*
X113990000Y-69700000D01*
%TO.C,J11*%
X113090000Y-69910000D02*
X113090000Y-67250000D01*
X110490000Y-69910000D02*
X113090000Y-69910000D01*
X110490000Y-67250000D02*
X113090000Y-67250000D01*
X110490000Y-69910000D02*
X110490000Y-67250000D01*
X109220000Y-69910000D02*
X107890000Y-69910000D01*
X107890000Y-69910000D02*
X107890000Y-68580000D01*
%TO.C,J12*%
X96170000Y-75080000D02*
X96170000Y-72420000D01*
X93570000Y-75080000D02*
X96170000Y-75080000D01*
X93570000Y-72420000D02*
X96170000Y-72420000D01*
X93570000Y-75080000D02*
X93570000Y-72420000D01*
X92300000Y-75080000D02*
X90970000Y-75080000D01*
X90970000Y-75080000D02*
X90970000Y-73750000D01*
%TO.C,D2*%
X128245000Y-77780000D02*
X125385000Y-77780000D01*
X125385000Y-77780000D02*
X125385000Y-79700000D01*
X125385000Y-79700000D02*
X128245000Y-79700000D01*
%TO.C,J9*%
X97680000Y-78420000D02*
X97680000Y-81080000D01*
X102820000Y-78420000D02*
X97680000Y-78420000D01*
X102820000Y-81080000D02*
X97680000Y-81080000D01*
X102820000Y-78420000D02*
X102820000Y-81080000D01*
X104090000Y-78420000D02*
X105420000Y-78420000D01*
X105420000Y-78420000D02*
X105420000Y-79750000D01*
%TO.C,J5*%
X116780000Y-71060000D02*
X116780000Y-73720000D01*
X119380000Y-71060000D02*
X116780000Y-71060000D01*
X119380000Y-73720000D02*
X116780000Y-73720000D01*
X119380000Y-71060000D02*
X119380000Y-73720000D01*
X120650000Y-71060000D02*
X121980000Y-71060000D01*
X121980000Y-71060000D02*
X121980000Y-72390000D01*
%TO.C,J1*%
X121980000Y-69910000D02*
X121980000Y-67250000D01*
X119380000Y-69910000D02*
X121980000Y-69910000D01*
X119380000Y-67250000D02*
X121980000Y-67250000D01*
X119380000Y-69910000D02*
X119380000Y-67250000D01*
X118110000Y-69910000D02*
X116780000Y-69910000D01*
X116780000Y-69910000D02*
X116780000Y-68580000D01*
D11*
%TO.C,J6*%
X106480000Y-62180000D02*
G75*
G03*
X106480000Y-62180000I-125000J0D01*
G01*
D12*
X105905000Y-58505000D02*
X105905000Y-65955000D01*
X105905000Y-58505000D02*
X98255000Y-58505000D01*
X98255000Y-58505000D02*
X98255000Y-65955000D01*
X105905000Y-65955000D02*
X98255000Y-65955000D01*
D10*
%TO.C,R2*%
X126895276Y-75827500D02*
X127404724Y-75827500D01*
X126895276Y-76872500D02*
X127404724Y-76872500D01*
%TO.C,R1*%
X127562224Y-72152500D02*
X127052776Y-72152500D01*
X127562224Y-71107500D02*
X127052776Y-71107500D01*
%TO.C,J8*%
X106490000Y-71370000D02*
X106490000Y-74030000D01*
X111630000Y-71370000D02*
X106490000Y-71370000D01*
X111630000Y-74030000D02*
X106490000Y-74030000D01*
X111630000Y-71370000D02*
X111630000Y-74030000D01*
X112900000Y-71370000D02*
X114230000Y-71370000D01*
X114230000Y-71370000D02*
X114230000Y-72700000D01*
%TO.C,D1*%
X128300000Y-68040000D02*
X125440000Y-68040000D01*
X125440000Y-68040000D02*
X125440000Y-69960000D01*
X125440000Y-69960000D02*
X128300000Y-69960000D01*
%TO.C,J13*%
D12*
X92940476Y-63602380D02*
X92940476Y-64316666D01*
X92892857Y-64459523D01*
X92797619Y-64554761D01*
X92654761Y-64602380D01*
X92559523Y-64602380D01*
X93940476Y-64602380D02*
X93369047Y-64602380D01*
X93654761Y-64602380D02*
X93654761Y-63602380D01*
X93559523Y-63745238D01*
X93464285Y-63840476D01*
X93369047Y-63888095D01*
X94273809Y-63602380D02*
X94892857Y-63602380D01*
X94559523Y-63983333D01*
X94702380Y-63983333D01*
X94797619Y-64030952D01*
X94845238Y-64078571D01*
X94892857Y-64173809D01*
X94892857Y-64411904D01*
X94845238Y-64507142D01*
X94797619Y-64554761D01*
X94702380Y-64602380D01*
X94416666Y-64602380D01*
X94321428Y-64554761D01*
X94273809Y-64507142D01*
%TO.C,J11*%
X106502380Y-68209523D02*
X107216666Y-68209523D01*
X107359523Y-68257142D01*
X107454761Y-68352380D01*
X107502380Y-68495238D01*
X107502380Y-68590476D01*
X107502380Y-67209523D02*
X107502380Y-67780952D01*
X107502380Y-67495238D02*
X106502380Y-67495238D01*
X106645238Y-67590476D01*
X106740476Y-67685714D01*
X106788095Y-67780952D01*
X107502380Y-66257142D02*
X107502380Y-66828571D01*
X107502380Y-66542857D02*
X106502380Y-66542857D01*
X106645238Y-66638095D01*
X106740476Y-66733333D01*
X106788095Y-66828571D01*
%TO.C,J4*%
X124152380Y-81183333D02*
X124866666Y-81183333D01*
X125009523Y-81230952D01*
X125104761Y-81326190D01*
X125152380Y-81469047D01*
X125152380Y-81564285D01*
X124485714Y-80278571D02*
X125152380Y-80278571D01*
X124104761Y-80516666D02*
X124819047Y-80754761D01*
X124819047Y-80135714D01*
%TO.C,J3*%
X104852380Y-77183333D02*
X105566666Y-77183333D01*
X105709523Y-77230952D01*
X105804761Y-77326190D01*
X105852380Y-77469047D01*
X105852380Y-77564285D01*
X104852380Y-76802380D02*
X104852380Y-76183333D01*
X105233333Y-76516666D01*
X105233333Y-76373809D01*
X105280952Y-76278571D01*
X105328571Y-76230952D01*
X105423809Y-76183333D01*
X105661904Y-76183333D01*
X105757142Y-76230952D01*
X105804761Y-76278571D01*
X105852380Y-76373809D01*
X105852380Y-76659523D01*
X105804761Y-76754761D01*
X105757142Y-76802380D01*
%TO.C,J2*%
X123852380Y-60683333D02*
X124566666Y-60683333D01*
X124709523Y-60730952D01*
X124804761Y-60826190D01*
X124852380Y-60969047D01*
X124852380Y-61064285D01*
X123947619Y-60254761D02*
X123900000Y-60207142D01*
X123852380Y-60111904D01*
X123852380Y-59873809D01*
X123900000Y-59778571D01*
X123947619Y-59730952D01*
X124042857Y-59683333D01*
X124138095Y-59683333D01*
X124280952Y-59730952D01*
X124852380Y-60302380D01*
X124852380Y-59683333D01*
%TO.C,R4*%
X127233333Y-66282380D02*
X126900000Y-65806190D01*
X126661904Y-66282380D02*
X126661904Y-65282380D01*
X127042857Y-65282380D01*
X127138095Y-65330000D01*
X127185714Y-65377619D01*
X127233333Y-65472857D01*
X127233333Y-65615714D01*
X127185714Y-65710952D01*
X127138095Y-65758571D01*
X127042857Y-65806190D01*
X126661904Y-65806190D01*
X128090476Y-65615714D02*
X128090476Y-66282380D01*
X127852380Y-65234761D02*
X127614285Y-65949047D01*
X128233333Y-65949047D01*
%TO.C,J7*%
X99321309Y-74452380D02*
X99321309Y-75166666D01*
X99273690Y-75309523D01*
X99178452Y-75404761D01*
X99035595Y-75452380D01*
X98940357Y-75452380D01*
X99702261Y-74452380D02*
X100368928Y-74452380D01*
X99940357Y-75452380D01*
%TO.C,D4*%
X126786904Y-60702380D02*
X126786904Y-59702380D01*
X127025000Y-59702380D01*
X127167857Y-59750000D01*
X127263095Y-59845238D01*
X127310714Y-59940476D01*
X127358333Y-60130952D01*
X127358333Y-60273809D01*
X127310714Y-60464285D01*
X127263095Y-60559523D01*
X127167857Y-60654761D01*
X127025000Y-60702380D01*
X126786904Y-60702380D01*
X128215476Y-60035714D02*
X128215476Y-60702380D01*
X127977380Y-59654761D02*
X127739285Y-60369047D01*
X128358333Y-60369047D01*
%TO.C,R3*%
X117612380Y-71201666D02*
X117136190Y-71535000D01*
X117612380Y-71773095D02*
X116612380Y-71773095D01*
X116612380Y-71392142D01*
X116660000Y-71296904D01*
X116707619Y-71249285D01*
X116802857Y-71201666D01*
X116945714Y-71201666D01*
X117040952Y-71249285D01*
X117088571Y-71296904D01*
X117136190Y-71392142D01*
X117136190Y-71773095D01*
X116612380Y-70868333D02*
X116612380Y-70249285D01*
X116993333Y-70582619D01*
X116993333Y-70439761D01*
X117040952Y-70344523D01*
X117088571Y-70296904D01*
X117183809Y-70249285D01*
X117421904Y-70249285D01*
X117517142Y-70296904D01*
X117564761Y-70344523D01*
X117612380Y-70439761D01*
X117612380Y-70725476D01*
X117564761Y-70820714D01*
X117517142Y-70868333D01*
%TO.C,D3*%
X115402380Y-66288095D02*
X114402380Y-66288095D01*
X114402380Y-66050000D01*
X114450000Y-65907142D01*
X114545238Y-65811904D01*
X114640476Y-65764285D01*
X114830952Y-65716666D01*
X114973809Y-65716666D01*
X115164285Y-65764285D01*
X115259523Y-65811904D01*
X115354761Y-65907142D01*
X115402380Y-66050000D01*
X115402380Y-66288095D01*
X114402380Y-65383333D02*
X114402380Y-64764285D01*
X114783333Y-65097619D01*
X114783333Y-64954761D01*
X114830952Y-64859523D01*
X114878571Y-64811904D01*
X114973809Y-64764285D01*
X115211904Y-64764285D01*
X115307142Y-64811904D01*
X115354761Y-64859523D01*
X115402380Y-64954761D01*
X115402380Y-65240476D01*
X115354761Y-65335714D01*
X115307142Y-65383333D01*
%TO.C,J12*%
X94340476Y-76052380D02*
X94340476Y-76766666D01*
X94292857Y-76909523D01*
X94197619Y-77004761D01*
X94054761Y-77052380D01*
X93959523Y-77052380D01*
X95340476Y-77052380D02*
X94769047Y-77052380D01*
X95054761Y-77052380D02*
X95054761Y-76052380D01*
X94959523Y-76195238D01*
X94864285Y-76290476D01*
X94769047Y-76338095D01*
X95721428Y-76147619D02*
X95769047Y-76100000D01*
X95864285Y-76052380D01*
X96102380Y-76052380D01*
X96197619Y-76100000D01*
X96245238Y-76147619D01*
X96292857Y-76242857D01*
X96292857Y-76338095D01*
X96245238Y-76480952D01*
X95673809Y-77052380D01*
X96292857Y-77052380D01*
%TO.C,D2*%
X126461904Y-81302380D02*
X126461904Y-80302380D01*
X126700000Y-80302380D01*
X126842857Y-80350000D01*
X126938095Y-80445238D01*
X126985714Y-80540476D01*
X127033333Y-80730952D01*
X127033333Y-80873809D01*
X126985714Y-81064285D01*
X126938095Y-81159523D01*
X126842857Y-81254761D01*
X126700000Y-81302380D01*
X126461904Y-81302380D01*
X127414285Y-80397619D02*
X127461904Y-80350000D01*
X127557142Y-80302380D01*
X127795238Y-80302380D01*
X127890476Y-80350000D01*
X127938095Y-80397619D01*
X127985714Y-80492857D01*
X127985714Y-80588095D01*
X127938095Y-80730952D01*
X127366666Y-81302380D01*
X127985714Y-81302380D01*
%TO.C,J9*%
X98516666Y-76652380D02*
X98516666Y-77366666D01*
X98469047Y-77509523D01*
X98373809Y-77604761D01*
X98230952Y-77652380D01*
X98135714Y-77652380D01*
X99040476Y-77652380D02*
X99230952Y-77652380D01*
X99326190Y-77604761D01*
X99373809Y-77557142D01*
X99469047Y-77414285D01*
X99516666Y-77223809D01*
X99516666Y-76842857D01*
X99469047Y-76747619D01*
X99421428Y-76700000D01*
X99326190Y-76652380D01*
X99135714Y-76652380D01*
X99040476Y-76700000D01*
X98992857Y-76747619D01*
X98945238Y-76842857D01*
X98945238Y-77080952D01*
X98992857Y-77176190D01*
X99040476Y-77223809D01*
X99135714Y-77271428D01*
X99326190Y-77271428D01*
X99421428Y-77223809D01*
X99469047Y-77176190D01*
X99516666Y-77080952D01*
%TO.C,J5*%
X122952380Y-72833333D02*
X123666666Y-72833333D01*
X123809523Y-72880952D01*
X123904761Y-72976190D01*
X123952380Y-73119047D01*
X123952380Y-73214285D01*
X122952380Y-71880952D02*
X122952380Y-72357142D01*
X123428571Y-72404761D01*
X123380952Y-72357142D01*
X123333333Y-72261904D01*
X123333333Y-72023809D01*
X123380952Y-71928571D01*
X123428571Y-71880952D01*
X123523809Y-71833333D01*
X123761904Y-71833333D01*
X123857142Y-71880952D01*
X123904761Y-71928571D01*
X123952380Y-72023809D01*
X123952380Y-72261904D01*
X123904761Y-72357142D01*
X123857142Y-72404761D01*
%TO.C,J1*%
X122952380Y-68833333D02*
X123666666Y-68833333D01*
X123809523Y-68880952D01*
X123904761Y-68976190D01*
X123952380Y-69119047D01*
X123952380Y-69214285D01*
X123952380Y-67833333D02*
X123952380Y-68404761D01*
X123952380Y-68119047D02*
X122952380Y-68119047D01*
X123095238Y-68214285D01*
X123190476Y-68309523D01*
X123238095Y-68404761D01*
%TO.C,J6*%
X96702380Y-60428690D02*
X97416666Y-60428690D01*
X97559523Y-60476309D01*
X97654761Y-60571547D01*
X97702380Y-60714404D01*
X97702380Y-60809642D01*
X96702380Y-59523928D02*
X96702380Y-59714404D01*
X96750000Y-59809642D01*
X96797619Y-59857261D01*
X96940476Y-59952500D01*
X97130952Y-60000119D01*
X97511904Y-60000119D01*
X97607142Y-59952500D01*
X97654761Y-59904880D01*
X97702380Y-59809642D01*
X97702380Y-59619166D01*
X97654761Y-59523928D01*
X97607142Y-59476309D01*
X97511904Y-59428690D01*
X97273809Y-59428690D01*
X97178571Y-59476309D01*
X97130952Y-59523928D01*
X97083333Y-59619166D01*
X97083333Y-59809642D01*
X97130952Y-59904880D01*
X97178571Y-59952500D01*
X97273809Y-60000119D01*
%TO.C,R2*%
X127075833Y-75112380D02*
X126742500Y-74636190D01*
X126504404Y-75112380D02*
X126504404Y-74112380D01*
X126885357Y-74112380D01*
X126980595Y-74160000D01*
X127028214Y-74207619D01*
X127075833Y-74302857D01*
X127075833Y-74445714D01*
X127028214Y-74540952D01*
X126980595Y-74588571D01*
X126885357Y-74636190D01*
X126504404Y-74636190D01*
X127456785Y-74207619D02*
X127504404Y-74160000D01*
X127599642Y-74112380D01*
X127837738Y-74112380D01*
X127932976Y-74160000D01*
X127980595Y-74207619D01*
X128028214Y-74302857D01*
X128028214Y-74398095D01*
X127980595Y-74540952D01*
X127409166Y-75112380D01*
X128028214Y-75112380D01*
%TO.C,R1*%
X130483333Y-72102380D02*
X130150000Y-71626190D01*
X129911904Y-72102380D02*
X129911904Y-71102380D01*
X130292857Y-71102380D01*
X130388095Y-71150000D01*
X130435714Y-71197619D01*
X130483333Y-71292857D01*
X130483333Y-71435714D01*
X130435714Y-71530952D01*
X130388095Y-71578571D01*
X130292857Y-71626190D01*
X129911904Y-71626190D01*
X131435714Y-72102380D02*
X130864285Y-72102380D01*
X131150000Y-72102380D02*
X131150000Y-71102380D01*
X131054761Y-71245238D01*
X130959523Y-71340476D01*
X130864285Y-71388095D01*
%TO.C,J8*%
X104716666Y-74402380D02*
X104716666Y-75116666D01*
X104669047Y-75259523D01*
X104573809Y-75354761D01*
X104430952Y-75402380D01*
X104335714Y-75402380D01*
X105335714Y-74830952D02*
X105240476Y-74783333D01*
X105192857Y-74735714D01*
X105145238Y-74640476D01*
X105145238Y-74592857D01*
X105192857Y-74497619D01*
X105240476Y-74450000D01*
X105335714Y-74402380D01*
X105526190Y-74402380D01*
X105621428Y-74450000D01*
X105669047Y-74497619D01*
X105716666Y-74592857D01*
X105716666Y-74640476D01*
X105669047Y-74735714D01*
X105621428Y-74783333D01*
X105526190Y-74830952D01*
X105335714Y-74830952D01*
X105240476Y-74878571D01*
X105192857Y-74926190D01*
X105145238Y-75021428D01*
X105145238Y-75211904D01*
X105192857Y-75307142D01*
X105240476Y-75354761D01*
X105335714Y-75402380D01*
X105526190Y-75402380D01*
X105621428Y-75354761D01*
X105669047Y-75307142D01*
X105716666Y-75211904D01*
X105716666Y-75021428D01*
X105669047Y-74926190D01*
X105621428Y-74878571D01*
X105526190Y-74830952D01*
%TO.C,D1*%
X130011904Y-69602380D02*
X130011904Y-68602380D01*
X130250000Y-68602380D01*
X130392857Y-68650000D01*
X130488095Y-68745238D01*
X130535714Y-68840476D01*
X130583333Y-69030952D01*
X130583333Y-69173809D01*
X130535714Y-69364285D01*
X130488095Y-69459523D01*
X130392857Y-69554761D01*
X130250000Y-69602380D01*
X130011904Y-69602380D01*
X131535714Y-69602380D02*
X130964285Y-69602380D01*
X131250000Y-69602380D02*
X131250000Y-68602380D01*
X131154761Y-68745238D01*
X131059523Y-68840476D01*
X130964285Y-68888095D01*
%TD*%
M02*
