M48
; DRILL file {KiCad (5.1.7)-1} date 11/08/20 19:33:28
; FORMAT={-:-/ absolute / inch / decimal}
; #@! TF.CreationDate,2020-11-08T19:33:28-06:00
; #@! TF.GenerationSoftware,Kicad,Pcbnew,(5.1.7)-1
; #@! TF.FileFunction,Plated,1,2,PTH
FMAT,2
INCH
T1C0.0394
T2C0.0433
%
G90
G05
T1
X3.7402Y-2.6654
X4.3016Y-3.1
X4.4Y-3.1
X4.2449Y-2.8622
X4.3449Y-2.8622
X4.4449Y-2.8622
X4.65Y-2.45
X4.7484Y-2.45
X4.65Y-2.7
X4.75Y-2.7
X4.3Y-2.45
X4.3984Y-2.45
X4.65Y-2.85
X4.75Y-2.85
X3.6339Y-2.9035
X3.7339Y-2.9035
X3.6417Y-2.6654
X4.3Y-2.7
X4.4Y-2.7
X4.6516Y-3.1
X4.75Y-3.1
X3.898Y-3.1398
X3.998Y-3.1398
X4.098Y-3.1398
T2
X3.95Y-2.448
X4.0878Y-2.448
X3.9488Y-2.7657
X4.0866Y-2.7657
T0
M30
