M48
; DRILL file {KiCad (5.1.7)-1} date 11/23/20 23:27:59
; FORMAT={-:-/ absolute / inch / decimal}
; #@! TF.CreationDate,2020-11-23T23:27:59-06:00
; #@! TF.GenerationSoftware,Kicad,Pcbnew,(5.1.7)-1
; #@! TF.FileFunction,Plated,1,2,PTH
FMAT,2
INCH
T1C0.0157
T2C0.0394
T3C0.0433
%
G90
G05
T1
X0.4134Y-0.1575
X0.4134Y-0.3346
X0.4134Y-0.4134
X0.4232Y0.4134
X0.4232Y0.3346
X0.4232Y0.1673
X0.4232Y0.0886
X0.4232Y-0.0787
T2
X-0.8465Y0.09
X-0.748Y0.09
X0.2165Y0.128
X0.3165Y0.128
X0.1772Y0.3545
X0.2756Y0.3545
X-0.1969Y0.3543
X-0.0984Y0.3543
X0.1673Y-0.3445
X0.2657Y-0.3445
X0.2051Y-0.1181
X0.3051Y-0.1181
X-0.5839Y-0.3937
X-0.4839Y-0.3937
X-0.3839Y-0.3937
X-0.1673Y-0.3445
X-0.0689Y-0.3445
X-0.2264Y0.128
X-0.1264Y0.128
X-0.2362Y-0.0197
X-0.2362Y-0.1197
X-0.8543Y-0.1384
X-0.7543Y-0.1384
X-0.0886Y-0.0197
X-0.0886Y-0.1197
X-0.5839Y-0.2525
X-0.4839Y-0.2525
X-0.3839Y-0.2525
T3
X-0.5382Y0.327
X-0.4004Y0.327
X-0.5394Y0.0093
X-0.4016Y0.0093
T0
M30
