%TF.GenerationSoftware,KiCad,Pcbnew,(5.1.7)-1*%
%TF.CreationDate,2020-11-23T23:27:49-06:00*%
%TF.ProjectId,3DP_HotEnd_Breakout,3344505f-486f-4744-956e-645f42726561,rev?*%
%TF.SameCoordinates,Original*%
%TF.FileFunction,Legend,Bot*%
%TF.FilePolarity,Positive*%
%FSLAX46Y46*%
G04 Gerber Fmt 4.6, Leading zero omitted, Abs format (unit mm)*
G04 Created by KiCad (PCBNEW (5.1.7)-1) date 2020-11-23 23:27:49*
%MOMM*%
%LPD*%
G01*
G04 APERTURE LIST*
%ADD10C,0.120000*%
%ADD11C,0.300000*%
G04 APERTURE END LIST*
D10*
X-16179800Y-11328400D02*
X-13512800Y-11328400D01*
X-16179800Y-8712200D02*
X-16179800Y-11328400D01*
X-13487400Y-8686800D02*
X-16154400Y-8686800D01*
X-13665200Y-11277600D02*
X-13665200Y-8661400D01*
X-16256000Y-7721600D02*
X-13589000Y-7721600D01*
X-16256000Y-5105400D02*
X-16256000Y-7721600D01*
X-13589000Y-5105400D02*
X-16256000Y-5105400D01*
X-13614400Y-7797800D02*
X-13614400Y-5181600D01*
X-17830800Y-4775200D02*
X-17830800Y-2108200D01*
X-20447000Y-4775200D02*
X-17830800Y-4775200D01*
X-20447000Y-2108200D02*
X-20447000Y-4775200D01*
X-17830800Y-2108200D02*
X-20447000Y-2108200D01*
X-23063200Y-4775200D02*
X-23063200Y-3429000D01*
X-21691600Y-4775200D02*
X-23063200Y-4775200D01*
X-7366000Y-4394200D02*
X-4699000Y-4394200D01*
X-7366000Y-1778000D02*
X-7366000Y-4394200D01*
X-4699000Y-1778000D02*
X-7366000Y-1778000D01*
X-4699000Y-4394200D02*
X-4699000Y-1778000D01*
X-7366000Y838200D02*
X-6019800Y838200D01*
X-7366000Y-533400D02*
X-7366000Y838200D01*
X-3581400Y-4394200D02*
X-914400Y-4394200D01*
X-3581400Y-1778000D02*
X-3581400Y-4394200D01*
X-914400Y-1778000D02*
X-3581400Y-1778000D01*
X-914400Y-4394200D02*
X-914400Y-1778000D01*
X-3581400Y838200D02*
X-2235200Y838200D01*
X-3581400Y-533400D02*
X-3581400Y838200D01*
X-13665200Y-8686800D02*
X-13665200Y-11353800D01*
X-11049000Y-8686800D02*
X-13665200Y-8686800D01*
X-11049000Y-11353800D02*
X-11049000Y-8686800D01*
X-13665200Y-11353800D02*
X-11049000Y-11353800D01*
X-8432800Y-8686800D02*
X-8432800Y-10033000D01*
X-9804400Y-8686800D02*
X-8432800Y-8686800D01*
X-13665200Y-5080000D02*
X-13665200Y-7747000D01*
X-11049000Y-5080000D02*
X-13665200Y-5080000D01*
X-11049000Y-7747000D02*
X-11049000Y-5080000D01*
X-13665200Y-7747000D02*
X-11049000Y-7747000D01*
X-8432800Y-5080000D02*
X-8432800Y-6426200D01*
X-9804400Y-5080000D02*
X-8432800Y-5080000D01*
X3860800Y-1701800D02*
X3860800Y-4368800D01*
X6477000Y-1701800D02*
X3860800Y-1701800D01*
X6477000Y-4368800D02*
X6477000Y-1701800D01*
X3860800Y-4368800D02*
X6477000Y-4368800D01*
X9093200Y-1701800D02*
X9093200Y-3048000D01*
X7721600Y-1701800D02*
X9093200Y-1701800D01*
X-1854200Y1930400D02*
X-1854200Y4597400D01*
X-4470400Y1930400D02*
X-1854200Y1930400D01*
X-1854200Y4597400D02*
X-4470400Y4597400D01*
X-7086600Y1930400D02*
X-7086600Y3276600D01*
X-4470400Y4597400D02*
X-4470400Y1930400D01*
X-5715000Y1930400D02*
X-7086600Y1930400D01*
X4140200Y1930400D02*
X4140200Y3276600D01*
X5511800Y1930400D02*
X4140200Y1930400D01*
X9372600Y1930400D02*
X9372600Y4597400D01*
X6756400Y1930400D02*
X9372600Y1930400D01*
X6756400Y4597400D02*
X6756400Y1930400D01*
X9372600Y4597400D02*
X6756400Y4597400D01*
D11*
X22791142Y-576971D02*
X22791142Y923028D01*
X22148285Y-576971D02*
X22148285Y208742D01*
X22219714Y351600D01*
X22362571Y423028D01*
X22576857Y423028D01*
X22719714Y351600D01*
X22791142Y280171D01*
X21648285Y423028D02*
X21076857Y423028D01*
X21434000Y923028D02*
X21434000Y-362685D01*
X21362571Y-505542D01*
X21219714Y-576971D01*
X21076857Y-576971D01*
X20791142Y423028D02*
X20219714Y423028D01*
X20576857Y923028D02*
X20576857Y-362685D01*
X20505428Y-505542D01*
X20362571Y-576971D01*
X20219714Y-576971D01*
X19719714Y423028D02*
X19719714Y-1076971D01*
X19719714Y351600D02*
X19576857Y423028D01*
X19291142Y423028D01*
X19148285Y351600D01*
X19076857Y280171D01*
X19005428Y137314D01*
X19005428Y-291257D01*
X19076857Y-434114D01*
X19148285Y-505542D01*
X19291142Y-576971D01*
X19576857Y-576971D01*
X19719714Y-505542D01*
X18433999Y-505542D02*
X18291142Y-576971D01*
X18005428Y-576971D01*
X17862571Y-505542D01*
X17791142Y-362685D01*
X17791142Y-291257D01*
X17862571Y-148400D01*
X18005428Y-76971D01*
X18219714Y-76971D01*
X18362571Y-5542D01*
X18433999Y137314D01*
X18433999Y208742D01*
X18362571Y351600D01*
X18219714Y423028D01*
X18005428Y423028D01*
X17862571Y351600D01*
X17148285Y-434114D02*
X17076857Y-505542D01*
X17148285Y-576971D01*
X17219714Y-505542D01*
X17148285Y-434114D01*
X17148285Y-576971D01*
X17148285Y351600D02*
X17076857Y280171D01*
X17148285Y208742D01*
X17219714Y280171D01*
X17148285Y351600D01*
X17148285Y208742D01*
X15362571Y994457D02*
X16648285Y-934114D01*
X13791142Y994457D02*
X15076857Y-934114D01*
X12648285Y423028D02*
X12648285Y-791257D01*
X12719714Y-934114D01*
X12791142Y-1005542D01*
X12934000Y-1076971D01*
X13148285Y-1076971D01*
X13291142Y-1005542D01*
X12648285Y-505542D02*
X12791142Y-576971D01*
X13076857Y-576971D01*
X13219714Y-505542D01*
X13291142Y-434114D01*
X13362571Y-291257D01*
X13362571Y137314D01*
X13291142Y280171D01*
X13219714Y351600D01*
X13076857Y423028D01*
X12791142Y423028D01*
X12648285Y351600D01*
X11934000Y-576971D02*
X11934000Y423028D01*
X11934000Y923028D02*
X12005428Y851600D01*
X11934000Y780171D01*
X11862571Y851600D01*
X11934000Y923028D01*
X11934000Y780171D01*
X11434000Y423028D02*
X10862571Y423028D01*
X11219714Y923028D02*
X11219714Y-362685D01*
X11148285Y-505542D01*
X11005428Y-576971D01*
X10862571Y-576971D01*
X10362571Y-434114D02*
X10291142Y-505542D01*
X10362571Y-576971D01*
X10434000Y-505542D01*
X10362571Y-434114D01*
X10362571Y-576971D01*
X9648285Y-576971D02*
X9648285Y423028D01*
X9648285Y923028D02*
X9719714Y851600D01*
X9648285Y780171D01*
X9576857Y851600D01*
X9648285Y923028D01*
X9648285Y780171D01*
X8719714Y-576971D02*
X8862571Y-505542D01*
X8934000Y-434114D01*
X9005428Y-291257D01*
X9005428Y137314D01*
X8934000Y280171D01*
X8862571Y351600D01*
X8719714Y423028D01*
X8505428Y423028D01*
X8362571Y351600D01*
X8291142Y280171D01*
X8219714Y137314D01*
X8219714Y-291257D01*
X8291142Y-434114D01*
X8362571Y-505542D01*
X8505428Y-576971D01*
X8719714Y-576971D01*
X6505428Y994457D02*
X7791142Y-934114D01*
X5576857Y923028D02*
X5576857Y-148400D01*
X5648285Y-362685D01*
X5791142Y-505542D01*
X6005428Y-576971D01*
X6148285Y-576971D01*
X4862571Y-576971D02*
X4862571Y923028D01*
X4719714Y-5542D02*
X4291142Y-576971D01*
X4291142Y423028D02*
X4862571Y-148400D01*
X3219714Y923028D02*
X3219714Y-148400D01*
X3291142Y-362685D01*
X3434000Y-505542D01*
X3648285Y-576971D01*
X3791142Y-576971D01*
X2576857Y-505542D02*
X2434000Y-576971D01*
X2148285Y-576971D01*
X2005428Y-505542D01*
X1934000Y-362685D01*
X1934000Y-291257D01*
X2005428Y-148400D01*
X2148285Y-76971D01*
X2362571Y-76971D01*
X2505428Y-5542D01*
X2576857Y137314D01*
X2576857Y208742D01*
X2505428Y351600D01*
X2362571Y423028D01*
X2148285Y423028D01*
X2005428Y351600D01*
X648285Y423028D02*
X648285Y-576971D01*
X1005428Y994457D02*
X1362571Y-76971D01*
X434000Y-76971D01*
M02*
