%TF.GenerationSoftware,KiCad,Pcbnew,(5.1.7)-1*%
%TF.CreationDate,2020-11-24T01:41:10-06:00*%
%TF.ProjectId,3DP_HotEnd_Breakout,3344505f-486f-4744-956e-645f42726561,rev?*%
%TF.SameCoordinates,Original*%
%TF.FileFunction,Copper,L2,Bot*%
%TF.FilePolarity,Positive*%
%FSLAX46Y46*%
G04 Gerber Fmt 4.6, Leading zero omitted, Abs format (unit mm)*
G04 Created by KiCad (PCBNEW (5.1.7)-1) date 2020-11-24 01:41:10*
%MOMM*%
%LPD*%
G01*
G04 APERTURE LIST*
%TA.AperFunction,ComponentPad*%
%ADD10O,1.700000X2.000000*%
%TD*%
%TA.AperFunction,ComponentPad*%
%ADD11O,1.700000X1.700000*%
%TD*%
%TA.AperFunction,ComponentPad*%
%ADD12R,1.700000X1.700000*%
%TD*%
%TA.AperFunction,ComponentPad*%
%ADD13C,1.700000*%
%TD*%
%TA.AperFunction,ViaPad*%
%ADD14C,0.800000*%
%TD*%
%TA.AperFunction,Conductor*%
%ADD15C,0.800000*%
%TD*%
%TA.AperFunction,Conductor*%
%ADD16C,0.250000*%
%TD*%
%TA.AperFunction,Conductor*%
%ADD17C,3.250000*%
%TD*%
G04 APERTURE END LIST*
D10*
%TO.P,J2,2*%
%TO.N,-FAN0*%
X7000000Y9005000D03*
%TO.P,J2,1*%
%TO.N,+FAN0*%
%TA.AperFunction,ComponentPad*%
G36*
G01*
X3650000Y8255000D02*
X3650000Y9755000D01*
G75*
G02*
X3900000Y10005000I250000J0D01*
G01*
X5100000Y10005000D01*
G75*
G02*
X5350000Y9755000I0J-250000D01*
G01*
X5350000Y8255000D01*
G75*
G02*
X5100000Y8005000I-250000J0D01*
G01*
X3900000Y8005000D01*
G75*
G02*
X3650000Y8255000I0J250000D01*
G01*
G37*
%TD.AperFunction*%
%TD*%
D11*
%TO.P,J15,2*%
%TO.N,Net-(J14-Pad2)*%
X-2250000Y-3040000D03*
D12*
%TO.P,J15,1*%
%TO.N,Net-(J14-Pad1)*%
X-2250000Y-500000D03*
%TD*%
D11*
%TO.P,J14,2*%
%TO.N,Net-(J14-Pad2)*%
X-6000000Y-3040000D03*
D12*
%TO.P,J14,1*%
%TO.N,Net-(J14-Pad1)*%
X-6000000Y-500000D03*
%TD*%
D10*
%TO.P,J11,2*%
%TO.N,-V_LED*%
X-2500000Y9000000D03*
%TO.P,J11,1*%
%TO.N,+V_LED*%
%TA.AperFunction,ComponentPad*%
G36*
G01*
X-5850000Y8250000D02*
X-5850000Y9750000D01*
G75*
G02*
X-5600000Y10000000I250000J0D01*
G01*
X-4400000Y10000000D01*
G75*
G02*
X-4150000Y9750000I0J-250000D01*
G01*
X-4150000Y8250000D01*
G75*
G02*
X-4400000Y8000000I-250000J0D01*
G01*
X-5600000Y8000000D01*
G75*
G02*
X-5850000Y8250000I0J250000D01*
G01*
G37*
%TD.AperFunction*%
%TD*%
%TO.P,J4,2*%
%TO.N,-FAN1*%
X4250000Y-8750000D03*
%TO.P,J4,1*%
%TO.N,+FAN1*%
%TA.AperFunction,ComponentPad*%
G36*
G01*
X7600000Y-8000000D02*
X7600000Y-9500000D01*
G75*
G02*
X7350000Y-9750000I-250000J0D01*
G01*
X6150000Y-9750000D01*
G75*
G02*
X5900000Y-9500000I0J250000D01*
G01*
X5900000Y-8000000D01*
G75*
G02*
X6150000Y-7750000I250000J0D01*
G01*
X7350000Y-7750000D01*
G75*
G02*
X7600000Y-8000000I0J-250000D01*
G01*
G37*
%TD.AperFunction*%
%TD*%
%TO.P,J13,2*%
%TO.N,-THERM*%
X-19000000Y2285000D03*
%TO.P,J13,1*%
%TO.N,+THERM*%
%TA.AperFunction,ComponentPad*%
G36*
G01*
X-22350000Y1535000D02*
X-22350000Y3035000D01*
G75*
G02*
X-22100000Y3285000I250000J0D01*
G01*
X-20900000Y3285000D01*
G75*
G02*
X-20650000Y3035000I0J-250000D01*
G01*
X-20650000Y1535000D01*
G75*
G02*
X-20900000Y1285000I-250000J0D01*
G01*
X-22100000Y1285000D01*
G75*
G02*
X-22350000Y1535000I0J250000D01*
G01*
G37*
%TD.AperFunction*%
%TD*%
D11*
%TO.P,J10,2*%
%TO.N,-V_LED*%
X-3210000Y3250000D03*
D12*
%TO.P,J10,1*%
%TO.N,+V_LED*%
X-5750000Y3250000D03*
%TD*%
%TO.P,J7,1*%
%TO.N,+V_IN*%
X-13700000Y235000D03*
D13*
%TO.P,J7,2*%
%TO.N,-V_IN*%
X-10200000Y235000D03*
%TD*%
D12*
%TO.P,J6,1*%
%TO.N,+V_IN*%
X-10170000Y8304999D03*
D13*
%TO.P,J6,2*%
%TO.N,-V_IN*%
X-13670000Y8304999D03*
%TD*%
D10*
%TO.P,J3,2*%
%TO.N,-FAN1*%
X-4250000Y-8750000D03*
%TO.P,J3,1*%
%TO.N,+FAN1*%
%TA.AperFunction,ComponentPad*%
G36*
G01*
X-900000Y-8000000D02*
X-900000Y-9500000D01*
G75*
G02*
X-1150000Y-9750000I-250000J0D01*
G01*
X-2350000Y-9750000D01*
G75*
G02*
X-2600000Y-9500000I0J250000D01*
G01*
X-2600000Y-8000000D01*
G75*
G02*
X-2350000Y-7750000I250000J0D01*
G01*
X-1150000Y-7750000D01*
G75*
G02*
X-900000Y-8000000I0J-250000D01*
G01*
G37*
%TD.AperFunction*%
%TD*%
D11*
%TO.P,J12,2*%
%TO.N,-THERM*%
X-19160000Y-3515000D03*
D12*
%TO.P,J12,1*%
%TO.N,+THERM*%
X-21700000Y-3515000D03*
%TD*%
D11*
%TO.P,J9,3*%
%TO.N,-V_Probe*%
X-14830000Y-8984000D03*
%TO.P,J9,2*%
%TO.N,+3V3*%
X-12290000Y-8984000D03*
D12*
%TO.P,J9,1*%
%TO.N,Z_PROBE_CONN*%
X-9750000Y-8984000D03*
%TD*%
D11*
%TO.P,J5,2*%
%TO.N,-FAN1*%
X5210000Y-3000000D03*
D12*
%TO.P,J5,1*%
%TO.N,+FAN1*%
X7750000Y-3000000D03*
%TD*%
D11*
%TO.P,J1,2*%
%TO.N,-FAN0*%
X8040000Y3250000D03*
D12*
%TO.P,J1,1*%
%TO.N,+FAN0*%
X5500000Y3250000D03*
%TD*%
D11*
%TO.P,J8,3*%
%TO.N,-V_Probe*%
X-14830000Y-5398400D03*
%TO.P,J8,2*%
%TO.N,+3V3*%
X-12290000Y-5398400D03*
D12*
%TO.P,J8,1*%
%TO.N,Z_PROBE_CONN*%
X-9750000Y-5398400D03*
%TD*%
D14*
%TO.N,-FAN0*%
X10668000Y8026400D03*
%TO.N,-FAN1*%
X10500000Y-10500000D03*
%TO.N,+V_LED*%
X10500000Y-1524000D03*
%TO.N,-V_LED*%
X10500000Y-4050000D03*
%TO.N,+FAN0*%
X10750000Y10500000D03*
%TO.N,+FAN1*%
X10500000Y-8500000D03*
%TO.N,-V_IN*%
X10668000Y4114800D03*
%TO.N,+V_IN*%
X10668000Y1524000D03*
%TD*%
D15*
%TO.N,+3V3*%
X-12290000Y-8984000D02*
X-12290000Y-5398400D01*
%TO.N,Z_PROBE_CONN*%
X-9750000Y-8984000D02*
X-9750000Y-5398400D01*
%TO.N,-FAN0*%
X8040000Y6460000D02*
X8040000Y3250000D01*
X7000000Y7500000D02*
X8040000Y6460000D01*
X7000000Y9005000D02*
X7000000Y7500000D01*
D16*
X7252500Y8752500D02*
X7000000Y9005000D01*
X7505000Y8500000D02*
X7252500Y8752500D01*
X10668000Y8026400D02*
X7505000Y8500000D01*
D15*
%TO.N,-FAN1*%
X4250000Y-8750000D02*
X4250000Y-9500000D01*
X4250000Y-9500000D02*
X3000000Y-10750000D01*
X3000000Y-10750000D02*
X-4000000Y-10750000D01*
X-4250000Y-10500000D02*
X-4250000Y-8750000D01*
X-4000000Y-10750000D02*
X-4250000Y-10500000D01*
X-4250000Y-8750000D02*
X-4250000Y-6250000D01*
X-4250000Y-6250000D02*
X-3250000Y-5250000D01*
X2960000Y-5250000D02*
X5210000Y-3000000D01*
X-3250000Y-5250000D02*
X2960000Y-5250000D01*
D16*
X6000000Y-10500000D02*
X4250000Y-8750000D01*
X10500000Y-10500000D02*
X6000000Y-10500000D01*
D15*
%TO.N,+V_LED*%
X-5750000Y3250000D02*
X-5750000Y5500000D01*
X-5750000Y5500000D02*
X-5000000Y6250000D01*
X-5000000Y6250000D02*
X-5000000Y9000000D01*
D16*
X10500000Y-441600D02*
X10500000Y-1524000D01*
X500000Y-250000D02*
X10308400Y-250000D01*
X250000Y0D02*
X500000Y-250000D01*
X250000Y3500000D02*
X250000Y0D01*
X10308400Y-250000D02*
X10500000Y-441600D01*
X-750000Y4500000D02*
X250000Y3500000D01*
X-750000Y10500000D02*
X-750000Y4500000D01*
X-5000000Y10500000D02*
X-750000Y10500000D01*
X-5000000Y9000000D02*
X-5000000Y10500000D01*
D15*
%TO.N,-V_LED*%
X-2500000Y9000000D02*
X-2500000Y7500000D01*
X-2500000Y7500000D02*
X-3250000Y6750000D01*
X-3210000Y6710000D02*
X-3210000Y3250000D01*
X-3250000Y6750000D02*
X-3210000Y6710000D01*
D16*
X9499600Y-2946400D02*
X10500000Y-4050000D01*
X9500000Y-1250000D02*
X9499600Y-2946400D01*
X9250000Y-1000000D02*
X9500000Y-1250000D01*
X0Y-1000000D02*
X9250000Y-1000000D01*
X-500000Y-500000D02*
X0Y-1000000D01*
X-500000Y2750000D02*
X-500000Y-500000D01*
X-1000000Y3250000D02*
X-500000Y2750000D01*
X-3210000Y3250000D02*
X-1000000Y3250000D01*
D15*
%TO.N,+FAN0*%
X5500000Y7000000D02*
X5500000Y3250000D01*
X4500000Y8000000D02*
X5500000Y7000000D01*
X4500000Y9005000D02*
X4500000Y8000000D01*
D16*
X10750000Y10500000D02*
X10250000Y11000000D01*
X10250000Y11000000D02*
X5000000Y11000000D01*
X5000000Y11000000D02*
X4500000Y10500000D01*
X4500000Y10500000D02*
X4500000Y9005000D01*
D15*
%TO.N,+FAN1*%
X6750000Y-8750000D02*
X6750000Y-7250000D01*
X6750000Y-7250000D02*
X6500000Y-7000000D01*
X6500000Y-7000000D02*
X2250000Y-7000000D01*
X2250000Y-7000000D02*
X750000Y-8500000D01*
X-1500000Y-8500000D02*
X-1750000Y-8750000D01*
X750000Y-8500000D02*
X-1500000Y-8500000D01*
X7750000Y-3000000D02*
X6750000Y-4000000D01*
X6750000Y-4000000D02*
X6750000Y-8750000D01*
D16*
X10500000Y-8500000D02*
X9000000Y-8500000D01*
X9000000Y-8500000D02*
X8750000Y-8750000D01*
X8750000Y-8750000D02*
X6750000Y-8750000D01*
D17*
%TO.N,-V_IN*%
X-13670000Y8304999D02*
X-13670000Y364998D01*
D16*
X8000000Y1250000D02*
X10668000Y4114800D01*
X1750000Y1750000D02*
X2250000Y1250000D01*
X10668000Y4114800D02*
X10750000Y4250000D01*
X1750000Y11000000D02*
X1750000Y1750000D01*
X2250000Y1250000D02*
X8000000Y1250000D01*
X1000000Y11500000D02*
X1750000Y11000000D01*
X-11500000Y11500000D02*
X1000000Y11500000D01*
X-13670000Y9330000D02*
X-11500000Y11500000D01*
X-13670000Y8304999D02*
X-13670000Y9330000D01*
D17*
%TO.N,+V_IN*%
X-10250000Y8250000D02*
X-10250000Y309999D01*
D16*
X9000000Y500000D02*
X10668000Y1524000D01*
X1000000Y1000000D02*
X1500000Y500000D01*
X1000000Y10750000D02*
X1000000Y1000000D01*
X1500000Y500000D02*
X9000000Y500000D01*
X750000Y11000000D02*
X1000000Y10750000D01*
X-7750000Y11000000D02*
X750000Y11000000D01*
X-10170000Y8580000D02*
X-7750000Y11000000D01*
X-10170000Y8304999D02*
X-10170000Y8580000D01*
D15*
%TO.N,-V_Probe*%
X-14830000Y-5398400D02*
X-14830000Y-8984000D01*
%TO.N,-THERM*%
X-19000000Y-3355000D02*
X-19160000Y-3515000D01*
X-19000000Y2285000D02*
X-19000000Y-3355000D01*
%TO.N,+THERM*%
X-21500000Y-3315000D02*
X-21700000Y-3515000D01*
X-21500000Y2285000D02*
X-21500000Y-3315000D01*
%TO.N,Net-(J14-Pad2)*%
X-6000000Y-3040000D02*
X-2250000Y-3040000D01*
%TO.N,Net-(J14-Pad1)*%
X-6000000Y-500000D02*
X-2250000Y-500000D01*
%TD*%
M02*
