%TF.GenerationSoftware,KiCad,Pcbnew,(5.1.7)-1*%
%TF.CreationDate,2020-11-08T19:33:24-06:00*%
%TF.ProjectId,3DP_HotEnd_Breakout,3344505f-486f-4744-956e-645f42726561,rev?*%
%TF.SameCoordinates,Original*%
%TF.FileFunction,Other,User*%
%FSLAX46Y46*%
G04 Gerber Fmt 4.6, Leading zero omitted, Abs format (unit mm)*
G04 Created by KiCad (PCBNEW (5.1.7)-1) date 2020-11-08 19:33:24*
%MOMM*%
%LPD*%
G01*
G04 APERTURE LIST*
%ADD10C,0.050000*%
%ADD11C,0.150000*%
G04 APERTURE END LIST*
D10*
%TO.C,J13*%
X89550000Y-64850000D02*
X89550000Y-71600000D01*
X89550000Y-71600000D02*
X97950000Y-71600000D01*
X97950000Y-71600000D02*
X97950000Y-64850000D01*
X97950000Y-64850000D02*
X89550000Y-64850000D01*
%TO.C,J11*%
X106270000Y-59380000D02*
X106270000Y-66130000D01*
X106270000Y-66130000D02*
X114670000Y-66130000D01*
X114670000Y-66130000D02*
X114670000Y-59380000D01*
X114670000Y-59380000D02*
X106270000Y-59380000D01*
%TO.C,J4*%
X123600000Y-81590000D02*
X123600000Y-74840000D01*
X123600000Y-74840000D02*
X115200000Y-74840000D01*
X115200000Y-74840000D02*
X115200000Y-81590000D01*
X115200000Y-81590000D02*
X123600000Y-81590000D01*
%TO.C,J3*%
X114710000Y-81590000D02*
X114710000Y-74840000D01*
X114710000Y-74840000D02*
X106310000Y-74840000D01*
X106310000Y-74840000D02*
X106310000Y-81590000D01*
X106310000Y-81590000D02*
X114710000Y-81590000D01*
%TO.C,J2*%
X115160000Y-59380000D02*
X115160000Y-66130000D01*
X115160000Y-66130000D02*
X123560000Y-66130000D01*
X123560000Y-66130000D02*
X123560000Y-59380000D01*
X123560000Y-59380000D02*
X115160000Y-59380000D01*
%TO.C,R4*%
X125750000Y-63670000D02*
X129050000Y-63670000D01*
X125750000Y-65130000D02*
X125750000Y-63670000D01*
X129050000Y-65130000D02*
X125750000Y-65130000D01*
X129050000Y-63670000D02*
X129050000Y-65130000D01*
D11*
%TO.C,J7*%
X105900000Y-66450001D02*
X105900000Y-66450001D01*
X105900000Y-66450001D02*
X98200000Y-66450001D01*
X98200000Y-66450001D02*
X98200000Y-73950001D01*
X98200000Y-73950001D02*
X105900000Y-73950001D01*
X105900000Y-73950001D02*
X105900000Y-66450001D01*
D10*
%TO.C,D4*%
X129375000Y-62850000D02*
X125675000Y-62850000D01*
X129375000Y-60950000D02*
X129375000Y-62850000D01*
X125675000Y-60950000D02*
X129375000Y-60950000D01*
X125675000Y-62850000D02*
X125675000Y-60950000D01*
%TO.C,R3*%
X114720000Y-74250000D02*
X114720000Y-70950000D01*
X116180000Y-74250000D02*
X114720000Y-74250000D01*
X116180000Y-70950000D02*
X116180000Y-74250000D01*
X114720000Y-70950000D02*
X116180000Y-70950000D01*
%TO.C,D3*%
X114000000Y-70550000D02*
X114000000Y-66850000D01*
X115900000Y-70550000D02*
X114000000Y-70550000D01*
X115900000Y-66850000D02*
X115900000Y-70550000D01*
X114000000Y-66850000D02*
X115900000Y-66850000D01*
%TO.C,J11*%
X107420000Y-66780000D02*
X107420000Y-70380000D01*
X113570000Y-66780000D02*
X107420000Y-66780000D01*
X113570000Y-70380000D02*
X113570000Y-66780000D01*
X107420000Y-70380000D02*
X113570000Y-70380000D01*
%TO.C,J12*%
X90500000Y-71950000D02*
X90500000Y-75550000D01*
X96650000Y-71950000D02*
X90500000Y-71950000D01*
X96650000Y-75550000D02*
X96650000Y-71950000D01*
X90500000Y-75550000D02*
X96650000Y-75550000D01*
%TO.C,D2*%
X129095000Y-79690000D02*
X125395000Y-79690000D01*
X129095000Y-77790000D02*
X129095000Y-79690000D01*
X125395000Y-77790000D02*
X129095000Y-77790000D01*
X125395000Y-79690000D02*
X125395000Y-77790000D01*
%TO.C,J9*%
X105890000Y-81550000D02*
X105890000Y-77950000D01*
X97240000Y-81550000D02*
X105890000Y-81550000D01*
X97240000Y-77950000D02*
X97240000Y-81550000D01*
X105890000Y-77950000D02*
X97240000Y-77950000D01*
%TO.C,J5*%
X122450000Y-74190000D02*
X122450000Y-70590000D01*
X116300000Y-74190000D02*
X122450000Y-74190000D01*
X116300000Y-70590000D02*
X116300000Y-74190000D01*
X122450000Y-70590000D02*
X116300000Y-70590000D01*
%TO.C,J1*%
X116310000Y-66780000D02*
X116310000Y-70380000D01*
X122460000Y-66780000D02*
X116310000Y-66780000D01*
X122460000Y-70380000D02*
X122460000Y-66780000D01*
X116310000Y-70380000D02*
X122460000Y-70380000D01*
D11*
%TO.C,J6*%
X98230000Y-65980000D02*
X98230000Y-65980000D01*
X98230000Y-65980000D02*
X105930000Y-65980000D01*
X105930000Y-65980000D02*
X105930000Y-58480000D01*
X105930000Y-58480000D02*
X98230000Y-58480000D01*
X98230000Y-58480000D02*
X98230000Y-65980000D01*
D10*
%TO.C,R2*%
X128800000Y-77080000D02*
X125500000Y-77080000D01*
X128800000Y-75620000D02*
X128800000Y-77080000D01*
X125500000Y-75620000D02*
X128800000Y-75620000D01*
X125500000Y-77080000D02*
X125500000Y-75620000D01*
%TO.C,R1*%
X125657500Y-70900000D02*
X128957500Y-70900000D01*
X125657500Y-72360000D02*
X125657500Y-70900000D01*
X128957500Y-72360000D02*
X125657500Y-72360000D01*
X128957500Y-70900000D02*
X128957500Y-72360000D01*
%TO.C,J8*%
X114700000Y-74500000D02*
X114700000Y-70900000D01*
X106050000Y-74500000D02*
X114700000Y-74500000D01*
X106050000Y-70900000D02*
X106050000Y-74500000D01*
X114700000Y-70900000D02*
X106050000Y-70900000D01*
%TO.C,D1*%
X129150000Y-69950000D02*
X125450000Y-69950000D01*
X129150000Y-68050000D02*
X129150000Y-69950000D01*
X125450000Y-68050000D02*
X129150000Y-68050000D01*
X125450000Y-69950000D02*
X125450000Y-68050000D01*
%TD*%
M02*
