%TF.GenerationSoftware,KiCad,Pcbnew,(5.1.7)-1*%
%TF.CreationDate,2020-11-08T19:50:20-06:00*%
%TF.ProjectId,3DP_HotEnd_Breakout,3344505f-486f-4744-956e-645f42726561,rev?*%
%TF.SameCoordinates,Original*%
%TF.FileFunction,Legend,Bot*%
%TF.FilePolarity,Positive*%
%FSLAX46Y46*%
G04 Gerber Fmt 4.6, Leading zero omitted, Abs format (unit mm)*
G04 Created by KiCad (PCBNEW (5.1.7)-1) date 2020-11-08 19:50:20*
%MOMM*%
%LPD*%
G01*
G04 APERTURE LIST*
%ADD10C,0.300000*%
G04 APERTURE END LIST*
D10*
X129807142Y-66728571D02*
X129807142Y-65228571D01*
X129164285Y-66728571D02*
X129164285Y-65942857D01*
X129235714Y-65800000D01*
X129378571Y-65728571D01*
X129592857Y-65728571D01*
X129735714Y-65800000D01*
X129807142Y-65871428D01*
X128664285Y-65728571D02*
X128092857Y-65728571D01*
X128450000Y-65228571D02*
X128450000Y-66514285D01*
X128378571Y-66657142D01*
X128235714Y-66728571D01*
X128092857Y-66728571D01*
X127807142Y-65728571D02*
X127235714Y-65728571D01*
X127592857Y-65228571D02*
X127592857Y-66514285D01*
X127521428Y-66657142D01*
X127378571Y-66728571D01*
X127235714Y-66728571D01*
X126735714Y-65728571D02*
X126735714Y-67228571D01*
X126735714Y-65800000D02*
X126592857Y-65728571D01*
X126307142Y-65728571D01*
X126164285Y-65800000D01*
X126092857Y-65871428D01*
X126021428Y-66014285D01*
X126021428Y-66442857D01*
X126092857Y-66585714D01*
X126164285Y-66657142D01*
X126307142Y-66728571D01*
X126592857Y-66728571D01*
X126735714Y-66657142D01*
X125450000Y-66657142D02*
X125307142Y-66728571D01*
X125021428Y-66728571D01*
X124878571Y-66657142D01*
X124807142Y-66514285D01*
X124807142Y-66442857D01*
X124878571Y-66300000D01*
X125021428Y-66228571D01*
X125235714Y-66228571D01*
X125378571Y-66157142D01*
X125450000Y-66014285D01*
X125450000Y-65942857D01*
X125378571Y-65800000D01*
X125235714Y-65728571D01*
X125021428Y-65728571D01*
X124878571Y-65800000D01*
X124164285Y-66585714D02*
X124092857Y-66657142D01*
X124164285Y-66728571D01*
X124235714Y-66657142D01*
X124164285Y-66585714D01*
X124164285Y-66728571D01*
X124164285Y-65800000D02*
X124092857Y-65871428D01*
X124164285Y-65942857D01*
X124235714Y-65871428D01*
X124164285Y-65800000D01*
X124164285Y-65942857D01*
X122378571Y-65157142D02*
X123664285Y-67085714D01*
X120807142Y-65157142D02*
X122092857Y-67085714D01*
X119664285Y-65728571D02*
X119664285Y-66942857D01*
X119735714Y-67085714D01*
X119807142Y-67157142D01*
X119950000Y-67228571D01*
X120164285Y-67228571D01*
X120307142Y-67157142D01*
X119664285Y-66657142D02*
X119807142Y-66728571D01*
X120092857Y-66728571D01*
X120235714Y-66657142D01*
X120307142Y-66585714D01*
X120378571Y-66442857D01*
X120378571Y-66014285D01*
X120307142Y-65871428D01*
X120235714Y-65800000D01*
X120092857Y-65728571D01*
X119807142Y-65728571D01*
X119664285Y-65800000D01*
X118950000Y-66728571D02*
X118950000Y-65728571D01*
X118950000Y-65228571D02*
X119021428Y-65300000D01*
X118950000Y-65371428D01*
X118878571Y-65300000D01*
X118950000Y-65228571D01*
X118950000Y-65371428D01*
X118450000Y-65728571D02*
X117878571Y-65728571D01*
X118235714Y-65228571D02*
X118235714Y-66514285D01*
X118164285Y-66657142D01*
X118021428Y-66728571D01*
X117878571Y-66728571D01*
X117378571Y-66585714D02*
X117307142Y-66657142D01*
X117378571Y-66728571D01*
X117450000Y-66657142D01*
X117378571Y-66585714D01*
X117378571Y-66728571D01*
X116664285Y-66728571D02*
X116664285Y-65728571D01*
X116664285Y-65228571D02*
X116735714Y-65300000D01*
X116664285Y-65371428D01*
X116592857Y-65300000D01*
X116664285Y-65228571D01*
X116664285Y-65371428D01*
X115735714Y-66728571D02*
X115878571Y-66657142D01*
X115950000Y-66585714D01*
X116021428Y-66442857D01*
X116021428Y-66014285D01*
X115950000Y-65871428D01*
X115878571Y-65800000D01*
X115735714Y-65728571D01*
X115521428Y-65728571D01*
X115378571Y-65800000D01*
X115307142Y-65871428D01*
X115235714Y-66014285D01*
X115235714Y-66442857D01*
X115307142Y-66585714D01*
X115378571Y-66657142D01*
X115521428Y-66728571D01*
X115735714Y-66728571D01*
X113521428Y-65157142D02*
X114807142Y-67085714D01*
X112592857Y-65228571D02*
X112592857Y-66300000D01*
X112664285Y-66514285D01*
X112807142Y-66657142D01*
X113021428Y-66728571D01*
X113164285Y-66728571D01*
X111878571Y-66728571D02*
X111878571Y-65228571D01*
X111735714Y-66157142D02*
X111307142Y-66728571D01*
X111307142Y-65728571D02*
X111878571Y-66300000D01*
X110235714Y-65228571D02*
X110235714Y-66300000D01*
X110307142Y-66514285D01*
X110450000Y-66657142D01*
X110664285Y-66728571D01*
X110807142Y-66728571D01*
X109592857Y-66657142D02*
X109450000Y-66728571D01*
X109164285Y-66728571D01*
X109021428Y-66657142D01*
X108950000Y-66514285D01*
X108950000Y-66442857D01*
X109021428Y-66300000D01*
X109164285Y-66228571D01*
X109378571Y-66228571D01*
X109521428Y-66157142D01*
X109592857Y-66014285D01*
X109592857Y-65942857D01*
X109521428Y-65800000D01*
X109378571Y-65728571D01*
X109164285Y-65728571D01*
X109021428Y-65800000D01*
X107664285Y-65728571D02*
X107664285Y-66728571D01*
X108021428Y-65157142D02*
X108378571Y-66228571D01*
X107450000Y-66228571D01*
M02*
