%TF.GenerationSoftware,KiCad,Pcbnew,(5.1.7)-1*%
%TF.CreationDate,2020-11-23T23:27:49-06:00*%
%TF.ProjectId,3DP_HotEnd_Breakout,3344505f-486f-4744-956e-645f42726561,rev?*%
%TF.SameCoordinates,Original*%
%TF.FileFunction,Other,User*%
%FSLAX46Y46*%
G04 Gerber Fmt 4.6, Leading zero omitted, Abs format (unit mm)*
G04 Created by KiCad (PCBNEW (5.1.7)-1) date 2020-11-23 23:27:49*
%MOMM*%
%LPD*%
G01*
G04 APERTURE LIST*
%ADD10C,0.050000*%
%ADD11C,0.150000*%
G04 APERTURE END LIST*
D10*
X-18250000Y8750000D02*
G75*
G03*
X-18250000Y8750000I-2750000J0D01*
G01*
X-18250000Y-8750000D02*
G75*
G03*
X-18250000Y-8750000I-2750000J0D01*
G01*
X23750000Y-8750000D02*
G75*
G03*
X23750000Y-8750000I-2750000J0D01*
G01*
X23750000Y8750000D02*
G75*
G03*
X23750000Y8750000I-2750000J0D01*
G01*
%TO.C,H4*%
X-17550000Y-8750000D02*
G75*
G03*
X-17550000Y-8750000I-3450000J0D01*
G01*
%TO.C,H3*%
X24450000Y8750000D02*
G75*
G03*
X24450000Y8750000I-3450000J0D01*
G01*
%TO.C,H2*%
X24450000Y-8750000D02*
G75*
G03*
X24450000Y-8750000I-3450000J0D01*
G01*
%TO.C,H1*%
X-17550000Y8750000D02*
G75*
G03*
X-17550000Y8750000I-3450000J0D01*
G01*
%TO.C,J2*%
X9950000Y11855000D02*
X1550000Y11855000D01*
X9950000Y5105000D02*
X9950000Y11855000D01*
X1550000Y5105000D02*
X9950000Y5105000D01*
X1550000Y11855000D02*
X1550000Y5105000D01*
%TO.C,J15*%
X-450000Y1300000D02*
X-4050000Y1300000D01*
X-450000Y-4850000D02*
X-450000Y1300000D01*
X-4050000Y-4850000D02*
X-450000Y-4850000D01*
X-4050000Y1300000D02*
X-4050000Y-4850000D01*
%TO.C,J14*%
X-4200000Y1300000D02*
X-7800000Y1300000D01*
X-4200000Y-4850000D02*
X-4200000Y1300000D01*
X-7800000Y-4850000D02*
X-4200000Y-4850000D01*
X-7800000Y1300000D02*
X-7800000Y-4850000D01*
%TO.C,J11*%
X450000Y11850000D02*
X-7950000Y11850000D01*
X450000Y5100000D02*
X450000Y11850000D01*
X-7950000Y5100000D02*
X450000Y5100000D01*
X-7950000Y11850000D02*
X-7950000Y5100000D01*
%TO.C,J4*%
X9700000Y-11600000D02*
X9700000Y-4850000D01*
X9700000Y-4850000D02*
X1300000Y-4850000D01*
X1300000Y-4850000D02*
X1300000Y-11600000D01*
X1300000Y-11600000D02*
X9700000Y-11600000D01*
%TO.C,J13*%
X-16050000Y5135000D02*
X-24450000Y5135000D01*
X-16050000Y-1615000D02*
X-16050000Y5135000D01*
X-24450000Y-1615000D02*
X-16050000Y-1615000D01*
X-24450000Y5135000D02*
X-24450000Y-1615000D01*
%TO.C,J10*%
X-7550000Y5050000D02*
X-7550000Y1450000D01*
X-1400000Y5050000D02*
X-7550000Y5050000D01*
X-1400000Y1450000D02*
X-1400000Y5050000D01*
X-7550000Y1450000D02*
X-1400000Y1450000D01*
D11*
%TO.C,J7*%
X-8100000Y4034999D02*
X-8100000Y4034999D01*
X-8100000Y4034999D02*
X-15800000Y4034999D01*
X-15800000Y4034999D02*
X-15800000Y-3465001D01*
X-15800000Y-3465001D02*
X-8100000Y-3465001D01*
X-8100000Y-3465001D02*
X-8100000Y4034999D01*
%TO.C,J6*%
X-15770000Y4505000D02*
X-15770000Y4505000D01*
X-15770000Y4505000D02*
X-8070000Y4505000D01*
X-8070000Y4505000D02*
X-8070000Y12005000D01*
X-8070000Y12005000D02*
X-15770000Y12005000D01*
X-15770000Y12005000D02*
X-15770000Y4505000D01*
D10*
%TO.C,J3*%
X-7200000Y-11600000D02*
X1200000Y-11600000D01*
X-7200000Y-4850000D02*
X-7200000Y-11600000D01*
X1200000Y-4850000D02*
X-7200000Y-4850000D01*
X1200000Y-11600000D02*
X1200000Y-4850000D01*
%TO.C,D4*%
X11400000Y3300000D02*
X11400000Y5200000D01*
X11400000Y5200000D02*
X15100000Y5200000D01*
X15100000Y5200000D02*
X15100000Y3300000D01*
X15100000Y3300000D02*
X11400000Y3300000D01*
%TO.C,D3*%
X11400000Y-4950000D02*
X11400000Y-3050000D01*
X11400000Y-3050000D02*
X15100000Y-3050000D01*
X15100000Y-3050000D02*
X15100000Y-4950000D01*
X15100000Y-4950000D02*
X11400000Y-4950000D01*
%TO.C,D2*%
X11150000Y-11450000D02*
X11150000Y-9550000D01*
X11150000Y-9550000D02*
X14850000Y-9550000D01*
X14850000Y-9550000D02*
X14850000Y-11450000D01*
X14850000Y-11450000D02*
X11150000Y-11450000D01*
%TO.C,D1*%
X14850000Y11450000D02*
X14850000Y9550000D01*
X14850000Y9550000D02*
X11150000Y9550000D01*
X11150000Y9550000D02*
X11150000Y11450000D01*
X11150000Y11450000D02*
X14850000Y11450000D01*
%TO.C,R1*%
X11850000Y7770000D02*
X11850000Y9230000D01*
X11850000Y9230000D02*
X15150000Y9230000D01*
X15150000Y9230000D02*
X15150000Y7770000D01*
X15150000Y7770000D02*
X11850000Y7770000D01*
%TO.C,R4*%
X15150000Y2980000D02*
X15150000Y1520000D01*
X15150000Y1520000D02*
X11850000Y1520000D01*
X11850000Y1520000D02*
X11850000Y2980000D01*
X11850000Y2980000D02*
X15150000Y2980000D01*
%TO.C,R3*%
X15150000Y-1270000D02*
X15150000Y-2730000D01*
X15150000Y-2730000D02*
X11850000Y-2730000D01*
X11850000Y-2730000D02*
X11850000Y-1270000D01*
X11850000Y-1270000D02*
X15150000Y-1270000D01*
%TO.C,J12*%
X-23500000Y-5315000D02*
X-17350000Y-5315000D01*
X-17350000Y-5315000D02*
X-17350000Y-1715000D01*
X-17350000Y-1715000D02*
X-23500000Y-1715000D01*
X-23500000Y-1715000D02*
X-23500000Y-5315000D01*
%TO.C,J9*%
X-7950000Y-8200000D02*
X-16600000Y-8200000D01*
X-16600000Y-8200000D02*
X-16600000Y-11800000D01*
X-16600000Y-11800000D02*
X-7950000Y-11800000D01*
X-7950000Y-11800000D02*
X-7950000Y-8200000D01*
%TO.C,J5*%
X9550000Y-1200000D02*
X3400000Y-1200000D01*
X3400000Y-1200000D02*
X3400000Y-4800000D01*
X3400000Y-4800000D02*
X9550000Y-4800000D01*
X9550000Y-4800000D02*
X9550000Y-1200000D01*
%TO.C,J1*%
X3700000Y1450000D02*
X9850000Y1450000D01*
X9850000Y1450000D02*
X9850000Y5050000D01*
X9850000Y5050000D02*
X3700000Y5050000D01*
X3700000Y5050000D02*
X3700000Y1450000D01*
%TO.C,R2*%
X14900000Y-7770000D02*
X14900000Y-9230000D01*
X14900000Y-9230000D02*
X11600000Y-9230000D01*
X11600000Y-9230000D02*
X11600000Y-7770000D01*
X11600000Y-7770000D02*
X14900000Y-7770000D01*
%TO.C,J8*%
X-7950000Y-4614400D02*
X-16600000Y-4614400D01*
X-16600000Y-4614400D02*
X-16600000Y-8214400D01*
X-16600000Y-8214400D02*
X-7950000Y-8214400D01*
X-7950000Y-8214400D02*
X-7950000Y-4614400D01*
%TD*%
M02*
